Coordinates
version=1
nRows=15
nColumns=46
inDegrees=yes

Units are S.I. units (second, meters, Newtons, ...)
Angles are in degrees.

endheader
time	pelvis_tilt	pelvis_list	pelvis_rotation	pelvis_tx	pelvis_ty	pelvis_tz	bb_angle	bb_tx	bb_ty	bb_tz	hip_flexion_r	hip_adduction_r	hip_rotation_r	knee_angle_r	knee_angle_r_beta	ankle_angle_r	subtalar_angle_r	mtp_angle_r	crank_angle_r	hip_flexion_l	hip_adduction_l	hip_rotation_l	knee_angle_l	knee_angle_l_beta	ankle_angle_l	subtalar_angle_l	mtp_angle_l	crank_angle_l	lumbar_extension	lumbar_bending	lumbar_rotation	arm_flex_r	arm_add_r	arm_rot_r	elbow_flex_r	pro_sup_r	wrist_flex_r	wrist_dev_r	arm_flex_l	arm_add_l	arm_rot_l	elbow_flex_l	pro_sup_l	wrist_flex_l	wrist_dev_l
      0.00500000	    -21.78964655	      1.56629496	     -4.66581195	      0.07171717	      0.99298844	     -0.20591202	      0.00000000	      0.50000000	      0.00000000	      0.25000000	     87.38110134	     -8.00129382	     -4.01847674	     76.42180427	      1.33381210	      3.81454867	     -1.11492451	      0.00000000	      0.00000000	     63.33170452	    -11.27366665	     -2.81713297	     84.24479268	      1.47034901	     -0.38267488	     -8.67814211	      0.00000000	      0.00000000	    -39.84466840	     -0.51339860	      0.32050944	     88.97294400	     -2.46917338	     38.65998678	     24.76210378	     37.27014891	      0.00000000	      0.00000000	     86.77845958	    -13.34466428	     42.25600474	     32.45847215	     39.87945229	      0.00000000	      0.00000000
      0.01000000	    -21.80518705	      1.57892320	     -4.67390660	      0.07167023	      0.99303265	     -0.20585882	      0.00000000	      0.50000000	      0.00000000	      0.25000000	     87.50755471	     -7.98571211	     -3.98208414	     76.54703540	      1.33599780	      3.71237636	     -1.19860931	      0.00000000	      0.00000000	     63.27280373	    -11.28356808	     -2.86305047	     84.10473139	      1.46790448	     -0.33873435	     -8.59054311	      0.00000000	      0.00000000	    -39.84670453	     -0.54476218	      0.34776201	     88.96022975	     -2.71582769	     39.16866726	     24.98579166	     37.58194215	      0.00000000	      0.00000000	     86.93941817	    -13.49372448	     43.20545208	     32.30336440	     40.48641281	      0.00000000	      0.00000000
      0.01500000	    -21.84713933	      1.58131220	     -4.69776690	      0.07160447	      0.99302456	     -0.20578021	      0.00000000	      0.50000000	      0.00000000	      0.25000000	     87.64539727	     -7.94985130	     -3.96745227	     76.65998436	      1.33796913	      3.65356585	     -1.28918223	      0.00000000	      0.00000000	     63.25460909	    -11.32809593	     -2.91455410	     83.97979718	      1.46572397	     -0.35894722	     -8.53050338	      0.00000000	      0.00000000	    -39.80930685	     -0.55880252	      0.38396191	     88.96231017	     -2.73627167	     39.37924286	     25.19274632	     36.07838353	      0.00000000	      0.00000000	     86.91040929	    -13.41488493	     43.07843531	     32.38575584	     39.78806093	      0.00000000	      0.00000000
      0.02000000	    -21.81507357	      1.59924817	     -4.68327215	      0.07167140	      0.99320582	     -0.20574169	      0.00000000	      0.50000000	      0.00000000	      0.25000000	     87.70537546	     -7.99476819	     -3.96396059	     76.79944920	      1.34040325	      3.65376307	     -1.25052885	      0.00000000	      0.00000000	     63.13601413	    -11.32686676	     -2.98502006	     83.81741078	      1.46288979	     -0.49619615	     -8.60492454	      0.00000000	      0.00000000	    -39.86789048	     -0.55878243	      0.29474070	     88.96868754	     -2.55675795	     38.98379900	     25.06513854	     36.26421763	      0.00000000	      0.00000000	     86.81899507	    -13.48441508	     42.47830748	     32.60073990	     39.93008372	      0.00000000	      0.00000000
      0.02500000	    -21.80786330	      1.44394067	     -4.65644486	      0.07159472	      0.99291626	     -0.20567880	      0.00000000	      0.50000000	      0.00000000	      0.25000000	     87.79035164	     -7.98471071	     -4.06685057	     76.98422668	      1.34362823	      3.63281667	     -1.28399872	      0.00000000	      0.00000000	     63.07454391	    -11.38680311	     -2.83868386	     83.65781090	      1.46010425	     -0.63762754	     -8.56680987	      0.00000000	      0.00000000	    -39.90729260	     -0.38601098	      0.39085701	     88.96398717	     -2.43942137	     38.60281293	     24.94259626	     36.48675292	      0.00000000	      0.00000000	     86.69227378	    -13.40178804	     41.82167002	     32.86250627	     40.09805160	      0.00000000	      0.00000000
      0.03000000	    -21.89357590	      1.43131825	     -4.65155236	      0.07151511	      0.99280322	     -0.20562223	      0.00000000	      0.50000000	      0.00000000	      0.25000000	     87.95640398	     -7.96244589	     -4.04803326	     77.07318459	      1.34518084	      3.57840158	     -1.29521666	      0.00000000	      0.00000000	     63.12572037	    -11.40272748	     -2.84569332	     83.54317207	      1.45810342	     -0.75680836	     -8.51900163	      0.00000000	      0.00000000	    -39.79211896	     -0.35026206	      0.32776876	     88.97459946	     -2.24480728	     38.62135368	     24.59573785	     36.64012707	      0.00000000	      0.00000000	     86.66372190	    -13.40444108	     41.59293593	     32.66188742	     40.19143760	      0.00000000	      0.00000000
      0.03500000	    -21.89097879	      1.48515611	     -4.66291190	      0.07150541	      0.99286934	     -0.20552308	      0.00000000	      0.50000000	      0.00000000	      0.25000000	     88.05420483	     -7.94673235	     -3.97047043	     77.19302719	      1.34727248	      3.54780964	     -1.36960230	      0.00000000	      0.00000000	     63.04292112	    -11.39728344	     -2.92687449	     83.39937964	      1.45559377	     -0.76590820	     -8.31816698	      0.00000000	      0.00000000	    -39.79066609	     -0.43448553	      0.28356273	     89.00487902	     -1.99930859	     37.65832482	     24.05917953	     36.49037917	      0.00000000	      0.00000000	     86.56869927	    -13.17879593	     40.56746979	     32.69275534	     40.09507492	      0.00000000	      0.00000000
      0.04000000	    -21.94428566	      1.35195821	     -4.62034824	      0.07141760	      0.99282030	     -0.20554007	      0.00000000	      0.50000000	      0.00000000	      0.25000000	     88.14118341	     -7.95886068	     -4.10761106	     77.29813941	      1.34910704	      3.58249397	     -1.34615048	      0.00000000	      0.00000000	     63.09771650	    -11.43687008	     -2.81598051	     83.28517358	      1.45360050	     -1.09466940	     -8.72543689	      0.00000000	      0.00000000	    -39.76643711	     -0.23877942	      0.28254791	     88.98722172	     -1.84040759	     37.09329683	     24.38740930	     36.86356001	      0.00000000	      0.00000000	     86.38065143	    -13.25895364	     39.81598949	     33.08113490	     40.29354256	      0.00000000	      0.00000000
      0.04500000	    -21.91531309	      1.42202107	     -4.63274910	      0.07144796	      0.99288607	     -0.20553534	      0.00000000	      0.50000000	      0.00000000	      0.25000000	     88.20823305	     -7.96633213	     -4.02683119	     77.40337793	      1.35094380	      3.54776584	     -1.44618896	      0.00000000	      0.00000000	     62.98884279	    -11.40428899	     -2.90701404	     83.17838640	      1.45173671	     -0.98672729	     -8.52610711	      0.00000000	      0.00000000	    -39.80408912	     -0.32908791	      0.27218260	     88.96885103	     -1.97420240	     37.06254483	     24.43109742	     37.10936994	      0.00000000	      0.00000000	     86.48866672	    -13.21981093	     39.90482196	     32.96414604	     40.44733234	      0.00000000	      0.00000000
      0.05000000	    -22.00928839	      1.43224495	     -4.64972917	      0.07134741	      0.99276858	     -0.20543003	      0.00000000	      0.50000000	      0.00000000	      0.25000000	     88.37064439	     -7.90599350	     -3.96441138	     77.45945173	      1.35192247	      3.47256335	     -1.49916214	      0.00000000	      0.00000000	     63.05738946	    -11.43631353	     -2.92344136	     83.09800002	      1.45033370	     -0.94134364	     -8.29986211	      0.00000000	      0.00000000	    -39.69539005	     -0.40289045	      0.42393263	     88.97632037	     -2.93500239	     39.76014899	     24.96636054	     36.91573485	      0.00000000	      0.00000000	     86.90000602	    -13.55236431	     42.86821777	     32.43978736	     40.81793509	      0.00000000	      0.00000000
      0.05500000	    -22.07760093	      1.37119228	     -4.61447195	      0.07129588	      0.99271216	     -0.20547947	      0.00000000	      0.50000000	      0.00000000	      0.25000000	     88.47016031	     -7.91683563	     -4.00019296	     77.52792766	      1.35311760	      3.50962170	     -1.47496174	      0.00000000	      0.00000000	     63.12730409	    -11.43113565	     -2.86683000	     83.01188050	      1.44883063	     -1.20790708	     -8.57940715	      0.00000000	      0.00000000	    -39.62273413	     -0.27487151	      0.35644296	     89.00435257	     -2.31541893	     38.34274413	     24.38372119	     36.61129362	      0.00000000	      0.00000000	     86.53006397	    -13.43142351	     40.86283484	     32.96423385	     40.59502072	      0.00000000	      0.00000000
      0.06000000	    -22.04015395	      1.45586941	     -4.62545451	      0.07133762	      0.99283270	     -0.20540875	      0.00000000	      0.50000000	      0.00000000	      0.25000000	     88.52614583	     -7.92301514	     -3.92118475	     77.62795907	      1.35486348	      3.46022518	     -1.58351507	      0.00000000	      0.00000000	     63.00047388	    -11.40371755	     -2.96133746	     82.88557417	      1.44662617	     -1.09732083	     -8.30920846	      0.00000000	      0.00000000	    -39.66163577	     -0.38134039	      0.33696371	     88.99083977	     -2.46261005	     38.48563829	     24.47051335	     36.84932701	      0.00000000	      0.00000000	     86.69362508	    -13.36686279	     41.27992808	     32.53104627	     40.74725145	      0.00000000	      0.00000000
      0.06500000	    -22.01665306	      1.45238508	     -4.64968021	      0.07129059	      0.99289334	     -0.20532738	      0.00000000	      0.50000000	      0.00000000	      0.25000000	     88.55119017	     -7.86727531	     -3.88015713	     77.69409764	      1.35601781	      3.50285034	     -1.59801327	      0.00000000	      0.00000000	     62.95024784	    -11.42815622	     -2.99473476	     82.82966423	      1.44565036	     -1.21203235	     -8.47496983	      0.00000000	      0.00000000	    -39.75847327	     -0.39991583	      0.29911736	     88.93473514	     -2.45119339	     37.93620245	     25.01180738	     36.85001356	      0.00000000	      0.00000000	     86.58932146	    -13.50537741	     40.50741757	     33.13821937	     40.75061066	      0.00000000	      0.00000000
      0.07000000	    -22.10591017	      1.50823217	     -4.60711016	      0.07127485	      0.99277191	     -0.20535619	      0.00000000	      0.50000000	      0.00000000	      0.25000000	     88.72160803	     -7.89850066	     -3.79833925	     77.76932221	      1.35733073	      3.43122766	     -1.61470006	      0.00000000	      0.00000000	     63.01103275	    -11.37698164	     -3.06153944	     82.72545493	      1.44383156	     -1.30133358	     -8.48153558	      0.00000000	      0.00000000	    -39.59634158	     -0.40651219	      0.22444073	     88.98660425	     -2.21772261	     38.06216353	     24.32914110	     36.98870479	      0.00000000	      0.00000000	     86.53517935	    -13.39068676	     40.56501275	     32.78953828	     40.82498131	      0.00000000	      0.00000000
      0.07500000	    -22.06605010	      1.48324861	     -4.59991191	      0.07128383	      0.99286886	     -0.20533903	      0.00000000	      0.50000000	      0.00000000	      0.25000000	     88.71456147	     -7.89551023	     -3.81043450	     77.84136384	      1.35858809	      3.43553844	     -1.67300662	      0.00000000	      0.00000000	     62.93957030	    -11.38164066	     -3.02464070	     82.66107914	      1.44270799	     -1.19976155	     -8.26787521	      0.00000000	      0.00000000	    -39.67863938	     -0.39380265	      0.35071069	     88.96805911	     -2.88820569	     39.21925638	     24.84025330	     38.11883464	      0.00000000	      0.00000000	     86.88731904	    -13.67558777	     42.63182168	     32.42245809	     41.60309756	      0.00000000	      0.00000000
